<?xml version="1.0" encoding="UTF-8" standalone="no"?> <svg xmlns="http://www.w3.org/2000/svg" viewBox="0 0 512 512"><g id="filled_outline" data-name="filled outline"><polygon points="488 23.992 384 111.992 416 127.992 488 63.992 488 23.992" style="fill:#cdcdcd"/><path d="M64,23.992H256a24,24,0,0,1,24,24v376a0,0,0,0,1,0,0H40a0,0,0,0,1,0,0v-376a24,24,0,0,1,24-24Z" style="fill:#4298d1"/><rect x="71.999" y="55.992" width="176" height="144" style="fill:#31d1c3"/><rect x="71.999" y="55.992" width="168" height="136" style="fill:#35e0d1"/><rect x="39.999" y="231.993" width="240" height="192" style="fill:#f5b02e"/><polygon points="296 455.993 23.999 455.993 39.999 423.993 280 423.993 296 455.993" style="fill:#bababa"/><rect x="23.999" y="455.993" width="272" height="32" style="fill:#a8a8a8"/><path d="M160,263.993,136.875,298.68A52.839,52.839,0,0,0,128,327.993h0a32,32,0,0,0,32,32h0a32,32,0,0,0,32-32h0a52.846,52.846,0,0,0-8.875-29.313Z" style="fill:#7a7a7a"/><path d="M156,269.993,136.874,298.68A52.844,52.844,0,0,0,128,327.993a31.9,31.9,0,0,0,28,31.6,31.9,31.9,0,0,0,28-31.6,52.836,52.836,0,0,0-8.875-29.313Z" style="fill:#878787"/><path d="M184,399.993H136a8,8,0,1,1,0-16h48a8,8,0,0,1,0,16Z" style="fill:#d38e14"/><path d="M360,351.993a48.052,48.052,0,0,1-48-48v-96a16.018,16.018,0,0,0-16-16H280v-32h16a48.054,48.054,0,0,1,48,48v96a16,16,0,0,0,32,0v-168h32v168A48.052,48.052,0,0,1,360,351.993Z" style="fill:#a8a8a8"/><circle cx="424" cy="135.992" r="48" style="fill:#f5b02e"/><path d="M424,159.992a24,24,0,0,1,0-48,8,8,0,0,1,0,16,8,8,0,0,0,0,16,8,8,0,0,1,0,16Z" style="fill:#d38e14"/><rect x="432" y="215.993" width="16" height="16" style="fill:#fcd795"/><rect x="432" y="247.993" width="16" height="16" style="fill:#fcd795"/><rect x="432" y="279.993" width="16" height="32" style="fill:#fcd795"/><rect x="119.999" y="159.992" width="16" height="16" style="fill:#2bc9c4"/><rect x="151.999" y="159.992" width="16" height="16" style="fill:#2bc9c4"/><rect x="183.999" y="159.992" width="16" height="16" style="fill:#2bc9c4"/><rect x="280" y="159.992" width="16" height="32" style="fill:#878787"/><path d="M491.359,16.742a7.989,7.989,0,0,0-8.531,1.149l-77.2,65.265A56.054,56.054,0,0,0,367.992,136V304a8,8,0,0,1-16,0V208a56.065,56.065,0,0,0-56-56h-8V48a32.033,32.033,0,0,0-32-32h-192a32.034,32.034,0,0,0-32,32V422.109L16.836,452.422c-.048.1-.061.2-.1.3-.077.171-.118.349-.183.525a7.917,7.917,0,0,0-.5,2.461c0,.1-.059.188-.059.292v32a8,8,0,0,0,8,8h272a8,8,0,0,0,8-8V456c0-.1-.055-.189-.058-.292a7.9,7.9,0,0,0-.5-2.459c-.065-.178-.106-.356-.184-.528-.044-.1-.056-.2-.1-.3l-15.156-30.313V200h8a8.008,8.008,0,0,1,8,8v96a56,56,0,0,0,112,0V191.361a55.934,55.934,0,0,0,47.568-94.95L493.305,69.98A7.994,7.994,0,0,0,495.992,64V24A8,8,0,0,0,491.359,16.742ZM47.992,240h224V416h-224ZM44.937,432h230.11l8,16H36.937ZM63.992,32h192a16.019,16.019,0,0,1,16,16V224h-224V48A16.019,16.019,0,0,1,63.992,32Zm224,448h-256V464h256Zm112-176a40,40,0,0,1-80,0V208a24.026,24.026,0,0,0-24-24h-8V168h8a40.047,40.047,0,0,1,40,40v96a24,24,0,0,0,48,0V175.116a56.226,56.226,0,0,0,16,11.4Zm64-168a40,40,0,1,1-40-40A40.047,40.047,0,0,1,463.992,136Zm16-75.594L450.444,86.664a55.573,55.573,0,0,0-17.268-5.844l46.816-39.582Z"/><path d="M71.992,208h176a8,8,0,0,0,8-8V56a8,8,0,0,0-8-8h-176a8,8,0,0,0-8,8V200A8,8,0,0,0,71.992,208Zm8-144h160V192h-160Z"/><path d="M166.648,259.562c-2.968-4.453-10.343-4.453-13.312,0L130.211,294.25A60.61,60.61,0,0,0,119.992,328a40,40,0,0,0,80,0,60.61,60.61,0,0,0-10.219-33.75ZM159.992,352a24.027,24.027,0,0,1-24-24,44.668,44.668,0,0,1,7.531-24.875l16.469-24.7,16.469,24.7A44.66,44.66,0,0,1,183.992,328,24.026,24.026,0,0,1,159.992,352Z"/><path d="M183.992,384h-48a8,8,0,1,0,0,16h48a8,8,0,0,0,0-16Z"/><path d="M423.992,128a8,8,0,0,0,0-16,24,24,0,1,0,0,48,8,8,0,0,0,0-16,8,8,0,1,1,0-16Z"/><rect x="431.992" y="216" width="16" height="16"/><rect x="431.992" y="248" width="16" height="16"/><rect x="431.992" y="280" width="16" height="32"/><rect x="119.992" y="160" width="16" height="16"/><rect x="151.992" y="160" width="16" height="16"/><rect x="183.992" y="160" width="16" height="16"/></g></svg>