<?xml version="1.0" encoding="UTF-8" standalone="no"?> <svg id="Layer_1" data-name="Layer 1" xmlns="http://www.w3.org/2000/svg" viewBox="0 0 64 64"><defs><style>.cls-1{fill:#fff;}.cls-2{fill:#e5e5e5;}.cls-3{fill:#844e40;}.cls-4{fill:#5e3128;}.cls-5{fill:#35251c;}</style></defs><title>Iced Coffee Icon</title><path class="cls-1" d="M41,62.45H23a3.89,3.89,0,0,1-3.73-3.91L16.8,31.36l-1.87-5.65V20.17a3.73,3.73,0,0,1,3.73-3.73h26a3.73,3.73,0,0,1,3.73,3.73v5.64L47,31.36,44.76,58.72A3.73,3.73,0,0,1,41,62.45Z"/><path class="cls-2" d="M44.67,16.44H33.61v46H41a3.73,3.73,0,0,0,3.73-3.73L47,31.36l1.38-5.55V20.17A3.73,3.73,0,0,0,44.67,16.44Z"/><path class="cls-3" d="M15.55,27.6l1.25,3.76,2.43,27.18A3.89,3.89,0,0,0,23,62.45H41a3.73,3.73,0,0,0,3.73-3.73L47,31.36,48,27.6Z"/><path class="cls-4" d="M33.61,62.45H41a3.73,3.73,0,0,0,3.73-3.73L47,31.36,48,27.6H33.61Z"/><path class="cls-5" d="M41,64H23a5.4,5.4,0,0,1-5.23-5.34L15.32,31.67,13.43,26V20.17a5.24,5.24,0,0,1,5.23-5.23h26a5.24,5.24,0,0,1,5.23,5.23l0,6L48.5,31.61,46.26,58.79A5.24,5.24,0,0,1,41,64ZM16.43,25.47l1.86,5.76,2.44,27.31A2.39,2.39,0,0,0,23,61H41a2.23,2.23,0,0,0,2.23-2.23V58.6L45.56,31l1.34-5.38V20.17a2.23,2.23,0,0,0-2.23-2.23h-26a2.23,2.23,0,0,0-2.23,2.23Z"/><rect class="cls-5" x="20.23" y="2.1" width="3" height="58.66" rx="0.9" transform="translate(-3.45 2.69) rotate(-6.57)"/><rect class="cls-1" x="26.21" y="34.83" width="9.9" height="9.9" rx="2.5" transform="translate(55.42 -4.55) rotate(66.76)"/><rect class="cls-1" x="29.94" y="44.66" width="9.9" height="9.9" rx="2.5" transform="translate(69.78 99.21) rotate(180)"/><path class="cls-2" d="M37.34,44.66H33.61v9.89h3.73a2.49,2.49,0,0,0,2.5-2.49V47.15A2.49,2.49,0,0,0,37.34,44.66Z"/><path class="cls-2" d="M34.74,35.57a2.43,2.43,0,0,0-1.13-1.21v9.75l1.76-.75a2.5,2.5,0,0,0,1.31-3.28Z"/><rect class="cls-2" x="34.15" y="26.83" width="9.9" height="9.9" rx="2.5" transform="translate(81.72 4.89) rotate(108.64)"/></svg>