<?xml version="1.0" encoding="UTF-8" standalone="no"?> <svg width="512" height="512" viewBox="0 0 512 512" fill="none" xmlns="http://www.w3.org/2000/svg">
<path d="M256 480C379.712 480 480 379.712 480 256C480 132.288 379.712 32 256 32C132.288 32 32 132.288 32 256C32 379.712 132.288 480 256 480Z" fill="#FD3730"/>
<path d="M256 344.344L169.355 384L180.295 289.341L115.805 219.191L209.212 200.344L256 117.333L302.788 200.344L396.195 219.191L331.705 289.341L342.645 384L256 344.344Z" fill="#FAC100"/>
<path d="M256 490.667C126.6 490.667 21.333 385.4 21.333 256C21.333 126.6 126.6 21.333 256 21.333C385.4 21.333 490.667 126.6 490.667 256C490.667 385.4 385.4 490.667 256 490.667ZM256 42.667C138.37 42.667 42.667 138.367 42.667 256C42.667 373.633 138.37 469.333 256 469.333C373.63 469.333 469.333 373.63 469.333 256C469.333 138.37 373.63 42.667 256 42.667V42.667Z" fill="black"/>
<path d="M342.646 394.667C341.114 394.668 339.601 394.338 338.209 393.698L256 356.073L173.792 393.7C172.073 394.488 170.175 394.804 168.293 394.617C166.412 394.429 164.614 393.744 163.084 392.633C161.554 391.521 160.347 390.023 159.588 388.291C158.828 386.559 158.543 384.656 158.761 382.778L169.141 292.971L107.954 226.411C106.674 225.019 105.787 223.311 105.385 221.463C104.982 219.616 105.078 217.694 105.663 215.896C106.247 214.097 107.3 212.486 108.712 211.228C110.124 209.97 111.845 209.111 113.699 208.737L202.319 190.857L246.708 112.1C247.636 110.452 248.986 109.081 250.619 108.127C252.251 107.173 254.108 106.67 255.999 106.67C257.891 106.67 259.748 107.173 261.38 108.127C263.013 109.081 264.363 110.452 265.291 112.1L309.682 190.858L398.302 208.738C400.156 209.112 401.877 209.971 403.289 211.229C404.701 212.487 405.754 214.098 406.338 215.897C406.923 217.695 407.019 219.617 406.616 221.464C406.213 223.312 405.327 225.02 404.047 226.412L342.86 292.972L353.24 382.779C353.414 384.273 353.269 385.787 352.816 387.221C352.362 388.656 351.611 389.978 350.61 391.101C349.61 392.224 348.383 393.123 347.01 393.738C345.637 394.353 344.15 394.671 342.646 394.67V394.667ZM256 333.677C257.532 333.677 259.046 334.007 260.438 334.646L329.876 366.427L321.11 290.568C320.932 289.046 321.085 287.504 321.558 286.047C322.031 284.59 322.813 283.252 323.85 282.125L375.531 225.9L300.677 210.8C299.175 210.498 297.756 209.875 296.516 208.974C295.277 208.074 294.246 206.916 293.495 205.581L256 139.057L218.505 205.58C217.754 206.915 216.723 208.073 215.483 208.973C214.244 209.874 212.825 210.497 211.323 210.799L136.469 225.899L188.151 282.12C189.188 283.247 189.97 284.585 190.443 286.042C190.916 287.499 191.069 289.041 190.891 290.563L182.125 366.422L251.563 334.641C252.955 334.004 254.469 333.675 256 333.677V333.677Z" fill="black"/>
</svg>
