<?xml version="1.0" encoding="UTF-8" standalone="no"?> <svg id="Layer_1" enable-background="new 0 0 512 512" height="512" viewBox="0 0 512 512" width="512" xmlns="http://www.w3.org/2000/svg"><g><g><path d="m121.25 385.131h269.512v89.061h-269.512z" fill="#ff8fb4"/><g fill="#ffe4b0"><path d="m110.791 374h28.376v93.315h-28.376z"/><path d="m197.934 374.552h28.376v93.315h-28.376z"/><path d="m285.077 374.552h28.376v93.315h-28.376z"/><path d="m372.219 374.552h28.376v93.315h-28.376z"/></g><g><path d="m255.631 46.188h-.002c-9.632 0-17.441 7.808-17.441 17.441v12.544h34.884v-12.544c0-9.633-7.809-17.441-17.441-17.441z" fill="#ffe4b0"/><g><g><path d="m60.559 463.98h390.882v40.52h-390.882z" fill="#ffcb69"/><path d="m411.441 463.98h40v40.52h-40z" fill="#ffc14d"/><path d="m198.241 463.98h115.519v40.52h-115.519z" fill="#ffa200"/></g></g><path d="m163.167 211.516h185.666v38.271h-185.666z" fill="#ff8fb4"/><path d="m193.175 124.709h125.649v38.271h-125.649z" fill="#ff8fb4"/><path d="m442.426 298.323h-372.852v-20.548l93.593-27.988h185.666l93.422 27.988z" fill="#8a8894"/><path d="m442.255 277.775-93.422-27.988h-40l93.422 27.988.171 20.548h40z" fill="#7e7b8f"/><path d="m412.418 211.516h-312.836v-20.548l93.593-27.988h125.65l93.422 27.988z" fill="#8a8894"/><path d="m412.247 190.968-93.422-27.988h-40l93.422 27.988.171 20.548h40z" fill="#7e7b8f"/><path d="m367.405 124.709h-222.81v-20.548l93.593-27.988h35.624l93.423 27.988z" fill="#8a8894"/><path d="m367.235 104.161-93.423-27.988h-35.624l-2.19.654 91.237 27.334.171 20.548h40z" fill="#7e7b8f"/><path d="m133.521 298.323h244.959v38.271h-244.959z" fill="#ff8fb4"/><g><path d="m472.073 385.131h-432.146v-20.549l93.594-27.988h244.958l93.423 27.988z" fill="#8a8894"/><path d="m471.902 364.583-93.423-27.989h-40l93.423 27.989.171 20.548h40z" fill="#7e7b8f"/></g></g></g><path d="m479.402 364.52c-.027-3.29-2.196-6.178-5.348-7.122l-88.075-26.385v-25.189h56.446c4.6-.438 7.1-2.959 7.5-7.562l-.17-20.548c-.027-3.29-2.196-6.178-5.348-7.122l-88.075-26.386v-25.188h56.085c4.6-.438 7.1-2.959 7.5-7.562l-.171-20.549c-.027-3.29-2.196-6.178-5.348-7.122l-88.075-26.386v-25.188h41.081c4.6-.438 7.1-2.959 7.5-7.562l-.17-20.547c-.027-3.291-2.196-6.179-5.348-7.123l-88.816-26.608v-6.739c0-11.141-7.343-20.596-17.441-23.787v-32.345c0-4.143-3.357-7.5-7.5-7.5s-7.5 3.357-7.5 7.5v32.341c-10.099 3.191-17.442 12.647-17.442 23.788v6.959l-24.092 7.204c-3.969 1.187-6.224 5.366-5.037 9.334 1.187 3.969 5.368 6.223 9.334 5.037l28.393-8.49h33.428l87.068 26.085.062 7.451h-207.748v-7.463l20.834-6.23c9.401-3.126 5.294-16.915-4.299-14.371 0 0-26.184 7.831-26.184 7.831-3.175.949-5.351 3.871-5.351 7.186v20.548c0 4.143 3.357 7.5 7.5 7.5h41.081v25.185l-88.242 26.388c-3.176.949-5.352 3.871-5.352 7.186v20.549c0 4.143 3.357 7.5 7.5 7.5h56.085v25.185l-88.241 26.387c-3.176.949-5.352 3.871-5.352 7.186v20.548c0 4.143 3.357 7.5 7.5 7.5h56.446v25.186l-88.241 26.387c-3.176.949-5.352 3.871-5.352 7.186v20.549c0 4.143 3.357 7.5 7.5 7.5h63.363v63.85h-42.73c-4.143 0-7.5 3.357-7.5 7.5v40.52c0 4.143 3.357 7.5 7.5 7.5h390.88c4.143 0 7.5-3.357 7.5-7.5v-40.52c0-4.143-3.357-7.5-7.5-7.5h-43.345v-63.85h63.977c4.6-.438 7.1-2.958 7.5-7.562zm-233.714-295.847v-5.044c0-5.482 4.461-9.943 9.943-9.941 5.481 0 9.94 4.46 9.94 9.941v5.044zm65.636 63.536v23.271h-110.648v-23.271zm-204.242 64.344 87.191-26.073h123.451l87.068 26.085.062 7.452h-297.772zm234.251 22.464v23.271h-170.666v-23.271zm-32.94 86.806c9.697 0 9.697-15 0-15h-231.319v-7.463l87.19-26.073h183.469l87.068 26.085.062 7.451h-86.521c-9.697 0-9.697 15 0 15h22.637v23.271h-229.958v-23.271zm-176.725 86.808v63.271h-13.377v-63.271zm15 0h43.767v63.85h-43.767zm130.909 0v63.85h-43.767v-63.85zm28.683 78.849v25.52h-100.52v-25.52zm-.307-15.113h-13.376v-63.736h13.376zm-87.142 0h-13.376v-63.736h13.376zm-150.751 15.113h122.68v25.52h-122.68zm375.88 25.52h-122.68v-25.52h122.68zm-122.987-40.52v-63.85h43.767v63.85zm72.143-.113h-13.376v-63.736h13.376zm-345.668-78.736v-7.464l87.19-26.072h242.762l87.068 26.084.062 7.452z"/></g></svg>